<?xml version="1.0" encoding="utf-8"?>
<!-- Generator: Adobe Illustrator 21.0.2, SVG Export Plug-In . SVG Version: 6.00 Build 0)  -->
<svg version="1.1" id="Layer_1" xmlns="http://www.w3.org/2000/svg" xmlns:xlink="http://www.w3.org/1999/xlink" x="0px" y="0px"
	 viewBox="0 0 184 75" style="enable-background:new 0 0 184 75;" xml:space="preserve">
<style type="text/css">
	.st0{fill:#FF375E;}
	.st1{fill:#580292;}
</style>
<g>
	<path class="st0" d="M105.2,31.3V28h-2.5c-0.6,0-0.9-0.3-0.9-0.9v-4.6h3.4v-3.3h-3.4v-3.9h-4v3.9h-1.9v3.3h1.9v5.1
		c0,2.4,1.4,3.8,4.3,3.8H105.2z"/>
	<path class="st0" d="M110.1,31.3h4V19.1h-6.3v3.3h2.3V31.3z M114.2,17.2v-3.6h-4v3.6H114.2z"/>
	<path class="st0" d="M129.6,26.6h-3.7c-0.4,1-1.1,1.5-2.3,1.5c-1.7,0-2.6-1.1-2.6-2.9c0-1.8,0.9-2.9,2.6-2.9c1.2,0,1.9,0.6,2.3,1.6
		h3.7c-0.5-3.3-2.8-5.2-6-5.2c-3.9,0-6.4,2.6-6.4,6.4c0,3.8,2.5,6.4,6.4,6.4C126.8,31.7,129.1,29.9,129.6,26.6z"/>
	<polygon class="st0" points="140.5,31.3 145,31.3 141,24.8 144.7,19.1 140.4,19.1 137.6,23.5 136.5,23.5 136.5,13.6 132.5,13.6 
		132.5,31.3 136.5,31.3 136.5,26.6 137.6,26.6 	"/>
	<path class="st0" d="M152.6,21.7c1.4,0,2.2,0.6,2.5,1.9h-5C150.4,22.3,151.3,21.7,152.6,21.7z M159,25.2c0-3.6-2.2-6.4-6.4-6.4
		c-3.9,0-6.5,2.7-6.5,6.4c0,3.9,2.6,6.5,6.5,6.5c3.1,0,5.5-1.7,6.1-3.9h-3.7c-0.4,0.4-1.1,0.9-2.2,0.9c-1.7,0-2.6-0.9-2.9-2.6h9
		C159,25.8,159,25.5,159,25.2z"/>
	<path class="st0" d="M169.9,31.3V28h-2.5c-0.6,0-0.9-0.3-0.9-0.9v-4.6h3.4v-3.3h-3.4v-3.9h-4v3.9h-1.9v3.3h1.9v5.1
		c0,2.4,1.4,3.8,4.3,3.8H169.9z"/>
	<path class="st0" d="M178.2,31.7c3.7,0,5.7-1.5,5.7-4.2c0-2.4-1.5-3.6-5.2-3.9c-2.1-0.1-2.5-0.4-2.5-1.1c0-0.6,0.7-1,1.8-1
		c1.1,0,1.7,0.4,1.9,0.9h3.8c-0.3-2.4-2.2-3.7-5.7-3.7c-3.6,0-5.6,1.4-5.6,4c0,2.2,1.4,3.4,5.1,3.6c2.2,0.1,2.6,0.4,2.6,1.3
		c0,0.7-0.8,1.2-2,1.2c-1.3,0-2.1-0.4-2.2-1.3h-3.9C172.2,30.1,174.5,31.7,178.2,31.7z"/>
	<path class="st1" d="M34.7,26.5v-9.3h9.3v9.3H34.7z M43.9,35.3v-8.8h9.3v8.8H43.9z M3.1,57c-1.7-1.7-2.8-3.7-3-6.1l8-1.7
		c0.1,1.2,0.6,2.3,1.4,3.2c1.2,1.2,3.1,2,5.4,2c3.2,0,5.2-1.2,5.2-3.4c0-1.7-1.2-2.7-3.9-3.3l-5.3-1.2c-3.2-0.8-5.7-2-7.4-3.7
		C1.8,41.2,1,39,1,36.5C1,33.6,2.2,31,4.3,29c2.5-2.2,6.1-3.6,10.3-3.6c4.6,0,8.6,1.6,11.1,4.1c1.6,1.6,2.7,3.5,2.9,5.7l-7.8,1.7
		c-0.1-1.1-0.6-2.1-1.3-2.8c-1.1-1.1-2.8-1.7-4.8-1.7c-3.2,0-5.1,1.4-5.1,3.4c0,1.5,1.3,2.6,3.5,3l5.4,1c3.3,0.6,5.9,1.9,7.7,3.7
		c1.8,1.8,2.8,4.1,2.8,6.8c0,2.9-1.1,5.4-3,7.2c-2.5,2.4-6.4,3.9-11.1,3.9C10,61.4,5.7,59.8,3.1,57z M37.4,58.4
		c-1.8-1.8-2.7-4.3-2.7-7.5V35.3h9.3v13.4c0,1.6,0.4,2.8,1.1,3.4c0.8,0.8,2,1.1,3.5,1.1c2.2,0,3.9-0.8,4.7-1.4v7.4
		c-1.1,1-3.7,2.1-7.4,2.1C42.3,61.4,39.4,60.4,37.4,58.4z M61.4,56.4c-3.3-3.2-5.3-7.7-5.3-13c0-5.2,2-9.7,5.2-13
		c3.2-3.2,7.7-5,12.7-5c5.4,0,9.5,1.9,12.3,4.6c2,2,3.3,4.4,3.9,6.8l-8.4,2.8c-0.4-1.3-1.1-2.6-2.1-3.7c-1.3-1.2-3-2.1-5.6-2.1
		c-2.4,0-4.6,0.8-6.2,2.4c-1.6,1.7-2.6,4-2.6,7.1c0,3,1,5.4,2.6,7.1c1.6,1.6,3.9,2.5,6.3,2.5c2.6,0,4.4-0.9,5.8-2.1
		c1.1-1,1.8-2.3,2.2-3.6l8.2,2.7c-0.7,2.5-2,4.9-4.2,7c-2.7,2.6-6.8,4.5-12,4.5C69.2,61.4,64.6,59.5,61.4,56.4z"/>
</g>
</svg>
