<?xml version="1.0" encoding="utf-8"?>
<!-- Generator: Adobe Illustrator 21.0.2, SVG Export Plug-In . SVG Version: 6.00 Build 0)  -->
<svg version="1.1" id="Layer_1" xmlns="http://www.w3.org/2000/svg" xmlns:xlink="http://www.w3.org/1999/xlink" x="0px" y="0px"
	 viewBox="0 0 165 53" style="enable-background:new 0 0 165 53;" xml:space="preserve">
<style type="text/css">
	.st0{fill:#580292;}
	.st1{fill:#FF375E;}
	.st2{fill:#FFFFFF;}
</style>
<rect class="st0" width="165" height="53"/>
<g>
	<path class="st1" d="M94.4,19.2v-3h-2.2c-0.5,0-0.8-0.3-0.8-0.8v-4.1h3v-3h-3V4.7h-3.6v3.5H86v3h1.7v4.5c0,2.1,1.3,3.4,3.9,3.4
		H94.4z"/>
	<path class="st1" d="M98.8,19.2h3.6V8.3h-5.6v3h2V19.2z M102.4,6.6V3.3h-3.6v3.3H102.4z"/>
	<path class="st1" d="M116.2,15h-3.4c-0.4,0.9-1,1.4-2,1.4c-1.5,0-2.3-1-2.3-2.6c0-1.6,0.8-2.6,2.3-2.6c1.1,0,1.7,0.5,2.1,1.5h3.4
		c-0.4-2.9-2.5-4.6-5.4-4.6c-3.5,0-5.8,2.4-5.8,5.8c0,3.4,2.2,5.8,5.8,5.8C113.7,19.5,115.8,17.9,116.2,15z"/>
	<polygon class="st1" points="126,19.2 130,19.2 126.4,13.4 129.8,8.3 125.9,8.3 123.4,12.2 122.4,12.2 122.4,3.3 118.8,3.3 
		118.8,19.2 122.4,19.2 122.4,14.9 123.4,14.9 	"/>
	<path class="st1" d="M136.9,10.6c1.2,0,2,0.5,2.2,1.7h-4.5C134.9,11.1,135.7,10.6,136.9,10.6z M142.6,13.7c0-3.2-2-5.7-5.7-5.7
		c-3.5,0-5.8,2.4-5.8,5.7c0,3.5,2.3,5.8,5.8,5.8c2.8,0,4.9-1.5,5.5-3.5H139c-0.3,0.4-1,0.8-2,0.8c-1.5,0-2.4-0.8-2.6-2.3h8.1
		C142.6,14.3,142.6,13.9,142.6,13.7z"/>
	<path class="st1" d="M152.4,19.2v-3h-2.2c-0.5,0-0.8-0.3-0.8-0.8v-4.1h3v-3h-3V4.7h-3.6v3.5h-1.7v3h1.7v4.5c0,2.1,1.3,3.4,3.9,3.4
		H152.4z"/>
	<path class="st1" d="M159.8,19.5c3.3,0,5.2-1.4,5.2-3.8c0-2.2-1.3-3.3-4.7-3.5c-1.9-0.1-2.3-0.3-2.3-1c0-0.6,0.6-0.9,1.6-0.9
		c1,0,1.5,0.3,1.7,0.8h3.4c-0.3-2.1-2-3.3-5.1-3.3c-3.2,0-5,1.3-5,3.6c0,2,1.3,3,4.6,3.2c2,0.1,2.4,0.4,2.4,1.1
		c0,0.7-0.7,1.1-1.8,1.1c-1.2,0-1.9-0.4-2-1.2h-3.5C154.5,18.1,156.5,19.5,159.8,19.5z"/>
	<path class="st2" d="M31,14.9V6.5h8.3v8.3H31z M39.4,22.8v-7.9h8.3v7.9H39.4z M2.7,42.2c-1.5-1.5-2.5-3.3-2.7-5.4l7.2-1.5
		c0.1,1.1,0.5,2.1,1.3,2.8c1.1,1.1,2.8,1.8,4.9,1.8c2.9,0,4.7-1.1,4.7-3c0-1.5-1.1-2.4-3.5-3l-4.8-1.1c-2.9-0.7-5.1-1.8-6.6-3.3
		c-1.5-1.5-2.3-3.4-2.3-5.7c0-2.6,1.1-4.9,3-6.7c2.2-2,5.4-3.2,9.3-3.2c4.2,0,7.7,1.4,10,3.6c1.5,1.4,2.4,3.2,2.6,5.1l-7,1.5
		c-0.1-1-0.6-1.9-1.2-2.5c-1-1-2.5-1.5-4.3-1.5c-2.8,0-4.6,1.2-4.6,3c0,1.4,1.1,2.3,3.2,2.7l4.9,0.9c3,0.6,5.3,1.7,6.9,3.3
		c1.6,1.6,2.5,3.7,2.5,6.1c0,2.6-1,4.8-2.7,6.5c-2.3,2.2-5.7,3.5-10,3.5C8.9,46.2,5.1,44.7,2.7,42.2z M33.5,43.5
		c-1.6-1.6-2.5-3.9-2.5-6.7v-14h8.3v12.1c0,1.4,0.3,2.5,0.9,3.1c0.8,0.7,1.8,1,3.2,1c2,0,3.5-0.7,4.2-1.2v6.7
		c-1,0.9-3.3,1.9-6.6,1.9C37.9,46.2,35.3,45.3,33.5,43.5z M55,41.7c-3-2.9-4.8-6.9-4.8-11.6c0-4.7,1.8-8.7,4.7-11.6
		c2.9-2.8,6.9-4.5,11.4-4.5c4.9,0,8.5,1.7,11,4.1c1.8,1.8,3,4,3.5,6.1l-7.5,2.5c-0.4-1.2-0.9-2.3-1.9-3.3c-1.1-1.1-2.7-1.9-5-1.9
		c-2.1,0-4.1,0.7-5.6,2.2c-1.5,1.5-2.3,3.6-2.3,6.4c0,2.7,0.9,4.9,2.3,6.4c1.5,1.4,3.5,2.2,5.6,2.2c2.3,0,4-0.8,5.2-1.9
		c1-0.9,1.6-2.1,2-3.2l7.4,2.4c-0.6,2.2-1.8,4.4-3.8,6.2c-2.5,2.3-6.1,4-10.7,4C62,46.2,57.9,44.5,55,41.7z"/>
</g>
</svg>
