<svg xmlns="http://www.w3.org/2000/svg" xmlns:xlink="http://www.w3.org/1999/xlink" width="62" height="62" viewBox="0 0 62 62">
  <defs>
    <clipPath id="clip-path">
      <path id="Path_5810" data-name="Path 5810" d="M21.271-14.105a4.671,4.671,0,0,1,4.886,4.421v4.421A4.671,4.671,0,0,1,21.271-.842H2.947V-9.684a4.671,4.671,0,0,1,4.886-4.421Zm.171,2.211H7.663A2.372,2.372,0,0,0,5.158-9.684v6.632H21.442a2.372,2.372,0,0,0,2.505-2.211V-9.684A2.372,2.372,0,0,0,21.442-11.895ZM14.553-27.368a6.079,6.079,0,0,1,6.079,6.079,6.079,6.079,0,0,1-6.079,6.079,6.079,6.079,0,0,1-6.079-6.079A6.079,6.079,0,0,1,14.553-27.368Zm0,2.211a3.868,3.868,0,0,0-3.868,3.868,3.868,3.868,0,0,0,3.868,3.868,3.868,3.868,0,0,0,3.868-3.868A3.868,3.868,0,0,0,14.553-25.158Z" fill="#fff" clip-rule="evenodd"/>
    </clipPath>
    <clipPath id="clip-path-2">
      <path id="Path_5809" data-name="Path 5809" d="M.737-.368H27.263v-27H.737Z" fill="#fff"/>
    </clipPath>
  </defs>
  <g id="Group_881" data-name="Group 881" transform="translate(-91 -91)">
    <circle id="Ellipse_33" data-name="Ellipse 33" cx="31" cy="31" r="31" transform="translate(91 91)" fill="#ff375e"/>
    <g id="Group_6650" data-name="Group 6650" transform="translate(107.053 136.369)">
      <g id="Group_6649" data-name="Group 6649" clip-path="url(#clip-path)">
        <g id="Group_6648" data-name="Group 6648" clip-path="url(#clip-path-2)">
          <path id="Path_5808" data-name="Path 5808" d="M-2.053-32.368H31.158V4.158H-2.053Z" fill="#fff"/>
        </g>
      </g>
    </g>
  </g>
</svg>
