<svg id="Icon_material-photo-camera" data-name="Icon material-photo-camera" xmlns="http://www.w3.org/2000/svg" width="141.052" height="126.946" viewBox="0 0 141.052 126.946">
  <path id="Path_170" data-name="Path 170" d="M58.336,35.768A22.568,22.568,0,1,1,35.768,13.2,22.568,22.568,0,0,1,58.336,35.768Z" transform="translate(34.758 34.758)" fill="#fff"/>
  <path id="Path_171" data-name="Path 171" d="M52.368,3,39.462,17.105H17.105A14.147,14.147,0,0,0,3,31.21v84.631a14.147,14.147,0,0,0,14.105,14.105H129.946a14.147,14.147,0,0,0,14.105-14.105V31.21a14.147,14.147,0,0,0-14.105-14.105H107.59L94.684,3ZM73.526,108.789a35.263,35.263,0,1,1,35.263-35.263A35.276,35.276,0,0,1,73.526,108.789Z" transform="translate(-3 -3)" fill="#fff"/>
</svg>
