<?xml version="1.0" encoding="utf-8"?>
<!-- Generator: Adobe Illustrator 21.0.2, SVG Export Plug-In . SVG Version: 6.00 Build 0)  -->
<svg version="1.1" id="Layer_1" xmlns="http://www.w3.org/2000/svg" xmlns:xlink="http://www.w3.org/1999/xlink" x="0px" y="0px"
	 viewBox="0 0 23.2 23.2" style="enable-background:new 0 0 23.2 23.2;" xml:space="preserve">
<style type="text/css">
	.st0{fill:#FFFFFF;}
</style>
<path id="Icon_awesome-directions" class="st0" d="M22.8,10.6L12.6,0.4c-0.6-0.6-1.5-0.6-2.1,0L0.4,10.6c-0.6,0.6-0.6,1.5,0,2.1
	l10.1,10.1c0.6,0.6,1.5,0.6,2.1,0c0,0,0,0,0,0l10.1-10.1C23.3,12.1,23.3,11.1,22.8,10.6z M18.2,11.1l-3.8,3.5
	c-0.1,0.1-0.4,0.1-0.5,0c-0.1-0.1-0.1-0.2-0.1-0.2V12H9.4v2.9c0,0.2-0.2,0.4-0.4,0.4H7.6c-0.2,0-0.4-0.2-0.4-0.4v-3.6
	c0-0.8,0.6-1.5,1.4-1.5l0,0h5.1V7.4c0-0.2,0.2-0.4,0.4-0.4c0.1,0,0.2,0,0.2,0.1l3.8,3.5C18.3,10.7,18.4,11,18.2,11.1
	C18.2,11.1,18.2,11.1,18.2,11.1L18.2,11.1z"/>
</svg>
