<svg xmlns="http://www.w3.org/2000/svg" width="39.343" height="39.343" viewBox="0 0 39.343 39.343">
  <g id="FB" transform="translate(4014 -7375)">
    <path id="Path_5800" data-name="Path 5800" d="M43.869,51.163h2.006V48.154c-.309,0-.617-.077-.926-.077A14.866,14.866,0,0,0,43.1,48a4.306,4.306,0,0,0-2.546.771,3.99,3.99,0,0,0-1.543,2.546,7.485,7.485,0,0,0-.077,1.311v2.237H36V58.26h2.854v8.486H42.4V58.26h2.854c.154-1.157.309-2.237.463-3.394H42.4V52.474A1.29,1.29,0,0,1,43.869,51.163Z" transform="translate(-4034.937 7337.377)" fill="#6f6e6f" fill-rule="evenodd"/>
    <circle id="Ellipse_185" data-name="Ellipse 185" cx="19.171" cy="19.171" r="19.171" transform="translate(-4013.5 7375.5)" fill="none" stroke="#d2d2d2" stroke-width="1"/>
  </g>
</svg>
