<svg xmlns="http://www.w3.org/2000/svg" width="23.199" height="23.2" viewBox="0 0 23.199 23.2">
  <path id="Icon_awesome-directions" data-name="Icon awesome-directions" d="M22.774,10.572,12.627.425a1.454,1.454,0,0,0-2.055,0L.425,10.572a1.454,1.454,0,0,0,0,2.055L10.572,22.774a1.453,1.453,0,0,0,2.055,0L22.774,12.627a1.454,1.454,0,0,0,0-2.055Zm-4.576.569-3.816,3.522a.363.363,0,0,1-.609-.266V11.962H9.424v2.9a.362.362,0,0,1-.362.362H7.612a.362.362,0,0,1-.362-.362V11.237A1.45,1.45,0,0,1,8.7,9.787h5.075V7.353a.363.363,0,0,1,.609-.266L18.2,10.608A.363.363,0,0,1,18.2,11.141Z" fill="#ff375e"/>
</svg>
