<svg xmlns="http://www.w3.org/2000/svg" width="39.343" height="39.343" viewBox="0 0 39.343 39.343">
  <g id="Insta" transform="translate(3844 -7375)">
    <g id="Group_6624" data-name="Group 6624" transform="translate(-4106.845 7333.145)">
      <path id="Path_5802" data-name="Path 5802" d="M291.627,56.826a4.74,4.74,0,0,0-1.452-3.074,5.3,5.3,0,0,0-3.331-1.366,77.735,77.735,0,0,0-8.967.085,4.648,4.648,0,0,0-3.928,3.5c-.427,1.537-.342,8.626-.085,10.163a4.527,4.527,0,0,0,3.672,3.928,55.719,55.719,0,0,0,9.992.085,4.536,4.536,0,0,0,3.928-3.587C291.883,65.025,291.712,58.278,291.627,56.826Zm-1.708,9.053a3.032,3.032,0,0,1-2.9,2.733c-1.452.171-7.942.256-9.309-.171a2.907,2.907,0,0,1-2.22-2.562,65.185,65.185,0,0,1,0-9.138,3.106,3.106,0,0,1,2.9-2.733,77.035,77.035,0,0,1,8.882,0,3.106,3.106,0,0,1,2.733,2.9A62.742,62.742,0,0,1,289.919,65.879Zm-7.174-9.138a4.612,4.612,0,1,0,4.612,4.612A4.593,4.593,0,0,0,282.745,56.741Zm-.085,7.6a2.989,2.989,0,1,1,2.989-2.989A2.87,2.87,0,0,1,282.66,64.342Zm5.978-7.772a1.11,1.11,0,1,1-1.11-1.11A1.13,1.13,0,0,1,288.638,56.57Z" fill="#6f6e6f"/>
    </g>
    <circle id="Ellipse_186" data-name="Ellipse 186" cx="19.171" cy="19.171" r="19.171" transform="translate(-3843.5 7375.5)" fill="none" stroke="#d2d2d2" stroke-width="1"/>
  </g>
</svg>
