<svg xmlns="http://www.w3.org/2000/svg" width="18.037" height="16.602" viewBox="0 0 18.037 16.602">
  <g id="noun_Sofa_1810522" transform="translate(191.568 -495.386)">
    <path id="Path_221" data-name="Path 221" d="M26.226,17.033V15.279a2.4,2.4,0,0,0-2.393-2.393H13.068a2.4,2.4,0,0,0-2.393,2.393v1.754a2.173,2.173,0,0,0-.744,1.636v6.618a2.164,2.164,0,0,0,2.479,2.157,2.391,2.391,0,0,0,1.976,1.045h8.128a2.391,2.391,0,0,0,1.975-1.045,2.164,2.164,0,0,0,2.479-2.157V18.669A2.173,2.173,0,0,0,26.226,17.033ZM11.162,15.279a1.909,1.909,0,0,1,1.907-1.907H23.833a1.909,1.909,0,0,1,1.907,1.907V16.71a2.175,2.175,0,0,0-3.13,1.959V20.32a12.322,12.322,0,0,0-4.159-.657,12.287,12.287,0,0,0-4.159.656V18.669a2.175,2.175,0,0,0-3.13-1.959V15.279ZM22.61,20.838v.283c-.032,0-.063,0-.1,0H14.387c-.032,0-.063,0-.1,0v-.28a11.7,11.7,0,0,1,4.159-.691A11.585,11.585,0,0,1,22.61,20.838Zm-10.446,6.14-.052,0a1.7,1.7,0,0,1-1.694-1.694V18.669a1.694,1.694,0,0,1,3.388,0V21.19a2.4,2.4,0,0,0-1.812,2.318V26.1A2.376,2.376,0,0,0,12.164,26.977ZM24.422,26.1A1.909,1.909,0,0,1,22.515,28H14.387A1.909,1.909,0,0,1,12.48,26.1V23.509A1.909,1.909,0,0,1,14.387,21.6h8.128a1.909,1.909,0,0,1,1.907,1.907V26.1Zm2.062-.809a1.7,1.7,0,0,1-1.694,1.694l-.052,0a2.376,2.376,0,0,0,.171-.882V23.509A2.4,2.4,0,0,0,23.1,21.19V18.669a1.694,1.694,0,1,1,3.388,0Z" transform="translate(-201 483)" fill="none" stroke="#ff375e" stroke-width="1"/>
  </g>
</svg>
