<svg xmlns="http://www.w3.org/2000/svg" width="52" height="52" viewBox="0 0 52 52">
  <g id="Twit_Invite" data-name="Twit Invite" transform="translate(-9161 -3818)">
    <g id="Rectangle" transform="translate(9161 3818)" fill="#fff" stroke="#ff375e" stroke-miterlimit="10" stroke-width="1">
      <rect width="52" height="52" rx="2" stroke="none"/>
      <rect x="0.5" y="0.5" width="51" height="51" rx="1.5" fill="none"/>
    </g>
    <path id="Path_178" data-name="Path 178" d="M44.95,19.8A12.688,12.688,0,0,0,57.752,7v-.61a9.911,9.911,0,0,0,2.195-2.317,10.121,10.121,0,0,1-2.56.732,4.744,4.744,0,0,0,1.951-2.439,11.184,11.184,0,0,1-2.8,1.1A4.354,4.354,0,0,0,53.241,2a4.581,4.581,0,0,0-4.511,4.511,2.377,2.377,0,0,0,.122.975,12.606,12.606,0,0,1-9.266-4.755,4.669,4.669,0,0,0-.61,2.317,4.844,4.844,0,0,0,1.951,3.78,4.11,4.11,0,0,1-2.073-.61h0a4.456,4.456,0,0,0,3.658,4.389,3.759,3.759,0,0,1-1.219.122,2.075,2.075,0,0,1-.853-.122,4.619,4.619,0,0,0,4.267,3.17A9.206,9.206,0,0,1,39.1,17.728a3.376,3.376,0,0,1-1.1-.122A11.508,11.508,0,0,0,44.95,19.8" transform="translate(9138 3833.271)" fill="#ff375e" fill-rule="evenodd"/>
  </g>
</svg>
