<svg xmlns="http://www.w3.org/2000/svg" width="39.343" height="39.343" viewBox="0 0 39.343 39.343">
  <g id="Twit" transform="translate(3945 -7375)">
    <circle id="Ellipse_104" data-name="Ellipse 104" cx="19.171" cy="19.171" r="19.171" transform="translate(-3944.5 7375.5)" fill="none" stroke="#d2d2d2" stroke-width="1"/>
    <path id="Path_5801" data-name="Path 5801" d="M115.352,63.9a3.936,3.936,0,0,1-3.637-2.707,3.821,3.821,0,0,0,1.692-.085h.085a3.942,3.942,0,0,1-2.538-1.776,3.634,3.634,0,0,1-.592-2.115,6.153,6.153,0,0,0,1.776.508,3.89,3.89,0,0,1-1.607-2.368,3.823,3.823,0,0,1,.423-2.876,11.252,11.252,0,0,0,8.12,4.145c0-.169-.085-.254-.085-.423a3.8,3.8,0,0,1,.592-2.538,3.579,3.579,0,0,1,2.622-1.776,3.815,3.815,0,0,1,3.468,1.1c.085.085.085.085.169.085a9.127,9.127,0,0,0,2.284-.846h.085a3.825,3.825,0,0,1-1.692,2.115,6.525,6.525,0,0,0,2.2-.592h0c-.169.169-.254.423-.423.592a10.894,10.894,0,0,1-1.438,1.353.083.083,0,0,0-.085.085,11.4,11.4,0,0,1-1.1,5.244,11.337,11.337,0,0,1-2.115,3.13,11.165,11.165,0,0,1-5.414,3.045,9.22,9.22,0,0,1-2.2.254,10.746,10.746,0,0,1-6.259-1.692.083.083,0,0,1-.085-.085,7.536,7.536,0,0,0,3.891-.508C114.168,64.659,114.76,64.321,115.352,63.9Z" transform="translate(-4044.6 7335.186)" fill="#6f6e6f" fill-rule="evenodd"/>
  </g>
</svg>
