<svg xmlns="http://www.w3.org/2000/svg" width="39.343" height="39.343" viewBox="0 0 39.343 39.343">
  <g id="Youtu" transform="translate(3894 -7375)">
    <g id="Group_6627" data-name="Group 6627">
      <path id="Path_5803" data-name="Path 5803" d="M198.551,65A2.054,2.054,0,0,1,197.06,63.5c-.628-1.805-.863-9.419.392-10.91a2.445,2.445,0,0,1,1.648-.863c3.375-.392,13.971-.314,15.148.157A2.238,2.238,0,0,1,215.74,53.3c.706,1.884.706,8.712-.078,10.517a2.48,2.48,0,0,1-1.1,1.1C213.307,65.545,200.2,65.545,198.551,65Zm5.416-3.532c2.041-1.1,4.081-2.119,6.122-3.218-2.041-1.1-4.081-2.119-6.122-3.218Z" transform="translate(-4080.93 7335.965)" fill="#6f6e6f" fill-rule="evenodd"/>
      <circle id="Ellipse_104" data-name="Ellipse 104" cx="19.171" cy="19.171" r="19.171" transform="translate(-3893.5 7375.5)" fill="none" stroke="#d2d2d2" stroke-width="1"/>
    </g>
  </g>
</svg>
