<svg xmlns="http://www.w3.org/2000/svg" xmlns:xlink="http://www.w3.org/1999/xlink" width="573" height="774" viewBox="0 0 573 774">
  <defs>
    <filter id="Subtraction_1" x="0" y="0" width="573" height="774" filterUnits="userSpaceOnUse">
      <feOffset dy="3" input="SourceAlpha"/>
      <feGaussianBlur stdDeviation="3" result="blur"/>
      <feFlood flood-opacity="0.2"/>
      <feComposite operator="in" in2="blur"/>
      <feComposite in="SourceGraphic"/>
    </filter>
  </defs>
  <g id="Group_6609" data-name="Group 6609" transform="translate(-7700 -15243)">
    <g transform="matrix(1, 0, 0, 1, 7700, 15243)" filter="url(#Subtraction_1)">
      <path id="Subtraction_1-2" data-name="Subtraction 1" d="M553,756H2a2,2,0,0,1-2-2v-1.441a21.465,21.465,0,0,0,6.574-7.322,20.44,20.44,0,0,0,2.466-9.713,20.441,20.441,0,0,0-2.466-9.713A21.463,21.463,0,0,0,0,718.489V703.6a21.462,21.462,0,0,0,6.574-7.322,20.44,20.44,0,0,0,2.466-9.713,20.441,20.441,0,0,0-2.466-9.713A21.462,21.462,0,0,0,0,669.526V651.571a21.464,21.464,0,0,0,6.574-7.322,20.44,20.44,0,0,0,2.466-9.713,20.438,20.438,0,0,0-2.466-9.712A21.465,21.465,0,0,0,0,617.5V602.607a21.464,21.464,0,0,0,6.574-7.322,20.438,20.438,0,0,0,2.466-9.712,20.441,20.441,0,0,0-2.466-9.713A21.463,21.463,0,0,0,0,568.539V550.584a21.463,21.463,0,0,0,6.574-7.322,20.441,20.441,0,0,0,2.466-9.713,20.441,20.441,0,0,0-2.466-9.713A21.465,21.465,0,0,0,0,516.514V501.608a21.466,21.466,0,0,0,6.574-7.322,20.44,20.44,0,0,0,2.466-9.713,20.439,20.439,0,0,0-2.466-9.713A21.466,21.466,0,0,0,0,467.538V452.42a21.465,21.465,0,0,0,6.574-7.32,20.439,20.439,0,0,0,2.466-9.713,20.439,20.439,0,0,0-2.466-9.713A21.467,21.467,0,0,0,0,418.35V403.456a21.465,21.465,0,0,0,6.574-7.322,20.439,20.439,0,0,0,2.466-9.713,20.44,20.44,0,0,0-2.466-9.713A21.467,21.467,0,0,0,0,369.386V351.433a21.468,21.468,0,0,0,6.574-7.322A20.439,20.439,0,0,0,9.041,334.4a20.439,20.439,0,0,0-2.466-9.713A21.466,21.466,0,0,0,0,317.363V302.469a21.466,21.466,0,0,0,6.574-7.322,20.439,20.439,0,0,0,2.466-9.713,20.439,20.439,0,0,0-2.466-9.713A21.467,21.467,0,0,0,0,268.4V250.445a21.466,21.466,0,0,0,6.574-7.322A20.44,20.44,0,0,0,9.04,233.41a20.438,20.438,0,0,0-2.466-9.71A21.467,21.467,0,0,0,0,216.375V201.469a21.466,21.466,0,0,0,6.574-7.322,20.44,20.44,0,0,0,2.466-9.713,20.44,20.44,0,0,0-2.466-9.713A21.467,21.467,0,0,0,0,167.4V149.247a21.466,21.466,0,0,0,6.574-7.322,20.44,20.44,0,0,0,2.466-9.713A20.439,20.439,0,0,0,6.574,122.5,21.467,21.467,0,0,0,0,115.177V100.283a21.466,21.466,0,0,0,6.574-7.322A20.44,20.44,0,0,0,9.04,83.248a20.439,20.439,0,0,0-2.466-9.713A21.467,21.467,0,0,0,0,66.213V48.259a21.466,21.466,0,0,0,6.574-7.322A20.437,20.437,0,0,0,9.04,31.225a20.439,20.439,0,0,0-2.466-9.713A21.466,21.466,0,0,0,0,14.189V2A2,2,0,0,1,2,0H553a2,2,0,0,1,2,2V754A2,2,0,0,1,553,756Z" transform="translate(9 6)" fill="#fff"/>
    </g>
    <rect id="Rectangle_1818" data-name="Rectangle 1818" width="555" height="79" transform="translate(7709 15249)" fill="#dedede" opacity="0.288"/>
  </g>
</svg>
